<?xml version="1.0" encoding="utf-8"?>
<!DOCTYPE svg PUBLIC "-//W3C//DTD SVG 1.1//EN" "http://www.w3.org/Graphics/SVG/1.1/DTD/svg11.dtd">
<svg version="1.1" id="Layer_1" xmlns="http://www.w3.org/2000/svg" xmlns:xlink="http://www.w3.org/1999/xlink" x="0px" y="0px">
<!-- Stand -->
<symbol id="stand" viewBox="0 0 800 800">
  <g id="laeegg">
  	<path d="M379.917,594.327c-13.999,0-26.982-3.276-34.946-8.792c-14.299,1.021-25.427,6.823-25.54,6.883l-2.934,1.55v-3.317
  		c0-15.928,14.673-28.886,32.709-28.886c0.252,0,0.507,0.003,0.771,0.011l0.085-0.414l2.895,0.598
  		c2.528,0.255,5.005,0.766,7.365,1.518l23.667,4.875c7.842-11.024,20.835-32.492,25.514-59.03
  		c6.695-37.968-6.411-72.578-6.544-72.923l-1.275-3.306l3.488,0.614c40.028,7.059,66.853,45.366,59.793,85.395
  		c-3.62,20.531-15.653,38.403-33.208,49.5c7.307,5.461,11.581,13.505,11.581,22.05v3.313l-2.933-1.544
  		c-0.113-0.06-11.283-5.864-25.541-6.884C406.898,591.051,393.916,594.327,379.917,594.327z"/>
  	<path fill="#FFFFFF" d="M404.823,435.676c39.004,6.878,65.049,44.072,58.171,83.077c-3.843,21.794-17.155,39.534-34.956,49.754
  		c8.031,4.85,13.299,12.956,13.299,22.144c0,0-11.817-6.243-27.053-7.156c-7.273,5.313-19.943,8.834-34.367,8.834
  		s-27.094-3.521-34.367-8.834c-15.234,0.913-27.053,7.156-27.053,7.156c0-14.849,13.749-26.886,30.709-26.886
  		c0.806,0,1.602,0.036,2.392,0.089c0.009-0.043,0.014-0.086,0.021-0.129c0,0,0.364,0.075,1.034,0.213
  		c2.487,0.244,4.887,0.743,7.158,1.476c5.437,1.12,13.116,2.702,21.638,4.457c1.151,0.237,2.288,0.472,3.406,0.702
  		c7.567-10.443,21.679-32.901,26.615-60.904C418.35,470.664,404.823,435.676,404.823,435.676 M398.536,430.506l2.557,6.612
  		c0.183,0.476,13.02,34.55,6.439,71.854c-4.466,25.327-16.631,45.992-24.424,57.154l-0.853-0.176l-21.43-4.414
  		c-2.429-0.767-4.973-1.29-7.566-1.56l-0.83-0.171l-3.925-0.812l-0.159,0.777c-18.742,0.407-33.848,14.102-33.848,30.875v6.638
  		l5.869-3.101c0.103-0.055,10.589-5.484,24.063-6.604c8.331,5.494,21.44,8.744,35.487,8.744c14.046,0,27.157-3.25,35.487-8.744
  		c13.55,1.12,23.957,6.547,24.063,6.604l5.868,3.101v-6.638c0-8.295-3.729-16.136-10.204-21.877
  		c16.775-11.473,28.243-29.148,31.801-49.324c7.25-41.113-20.301-80.461-61.416-87.711L398.536,430.506L398.536,430.506z"/>
  </g>
  <g id="headLine">
  	<path d="M262.778,364.813c-35.944,0-65.187-29.243-65.187-65.187s29.243-65.187,65.187-65.187
  		c35.944,0,65.187,29.243,65.187,65.187S298.723,364.813,262.778,364.813z"/>
  	<path fill="#FFFFFF" d="M262.778,236.439c34.897,0,63.187,28.29,63.187,63.187s-28.29,63.187-63.187,63.187
  		s-63.187-28.29-63.187-63.187C199.592,264.729,227.881,236.439,262.778,236.439 M262.778,232.439
  		c-37.047,0-67.187,30.14-67.187,67.187s30.14,67.187,67.187,67.187c37.047,0,67.187-30.14,67.187-67.187
  		S299.825,232.439,262.778,232.439L262.778,232.439z"/>
  </g>
  <g id="tail">
  	<path d="M574,297.626h85.621v2c0,66.627-30.027,128.553-82.382,169.899L574,472.084V297.626z"/>
  	<path fill="#FFFFFF" d="M657.621,299.626c0,68.264-31.909,129.071-81.621,168.33v-168.33H657.621 M661.621,295.626h-4H576h-4v4
  		v168.33v8.256l6.479-5.117c25.331-20.005,46.271-45.817,60.559-74.649c14.984-30.246,22.584-62.82,22.584-96.818V295.626
  		L661.621,295.626z"/>
  </g>
  <g id="body">
  	<path d="M443.247,516.002c-57.796,0-112.133-22.507-153-63.375c-40.868-40.867-63.375-95.204-63.375-153v-0.972l69.819-54.905
  		l282.528,224.212l-1.982,1.565C538.737,499.932,492.404,516.002,443.247,516.002z"/>
  	<path fill="#FFFFFF" d="M296.685,246.299l279.311,221.66c-36.508,28.831-82.617,46.043-132.749,46.043
  		c-118.396,0-214.375-95.979-214.375-214.375L296.685,246.299 M296.696,241.202l-2.484,1.954l-67.813,53.328l-1.527,1.201v1.943
  		c0,29.479,5.774,58.078,17.163,85.002c10.999,26.005,26.744,49.358,46.798,69.412c20.054,20.054,43.407,35.799,69.412,46.798
  		c26.925,11.388,55.523,17.162,85.003,17.162c24.979,0,49.479-4.185,72.817-12.438c22.555-7.978,43.553-19.572,62.41-34.466
  		l3.966-3.132l-3.958-3.141l-279.312-221.66L296.696,241.202L296.696,241.202z"/>
  </g>
  <g id="beak">
  	<g>
  		<path d="M152.415,299.626l1.435-2.89c10.237-20.616,34.004-41.418,64.028-41.418c34.864,0,63.462,18.523,65.106,42.169
  			l0.149,2.139H152.415z"/>
  		<path fill="#FFFFFF" d="M217.877,257.318c33.896,0,61.551,17.871,63.111,40.308H155.641
  			C164.695,279.391,187.335,257.318,217.877,257.318 M217.877,253.318c-30.88,0-55.308,21.36-65.819,42.529l-2.87,5.779h6.452
  			h125.348h4.288l-0.297-4.277C283.262,272.659,253.788,253.318,217.877,253.318L217.877,253.318z"/>
  	</g>
  	<g>
  		<path d="M217.877,343.934c-31.468,0-57.293-26.999-64.127-41.453l-1.35-2.855h130.732l-0.149,2.139
  			C281.34,325.411,252.742,343.934,217.877,343.934z"/>
  		<path fill="#FFFFFF" d="M280.989,301.626c-1.56,22.437-29.216,40.308-63.111,40.308c-30.227,0-55.467-25.814-62.319-40.308
  			H280.989 M285.276,297.626h-4.288h-125.43h-6.315l2.699,5.709c3.288,6.955,11.214,17.718,23.6,27.072
  			c9.379,7.083,24.338,15.527,42.335,15.527c35.91,0,65.385-19.34,67.102-44.031L285.276,297.626L285.276,297.626z"/>
  	</g>
  </g>
  <g id="head">
  	<g>
  		<circle cx="262.779" cy="299.626" r="63.187"/>
  	</g>
  	<path fill="none" stroke="#FFFFFF" stroke-width="4" stroke-linecap="round" stroke-miterlimit="10" d="M263.998,365.252
  		c-36.244,0-65.626-29.382-65.626-65.626S227.754,234,263.998,234"/>
  </g>
  <g id="eye">
  	<circle fill="#FFFFFF" cx="262.779" cy="299.626" r="33.906"/>
  	<circle cx="262.779" cy="299.626" r="11.928"/>
  </g>
  <g id="wingLines">
  	<path fill="none" stroke="#FFFFFF" stroke-width="4" stroke-linecap="round" stroke-miterlimit="10" d="M343.288,331.919
  		c-32.798,11.625-56.289,42.921-56.289,79.703c0,46.688,37.85,84.539,84.54,84.539c46.689,0,84.54-37.852,84.54-84.539
  		c0-26.387-12.089-49.95-31.031-65.453"/>
  	
  		<line fill="none" stroke="#FFFFFF" stroke-width="4" stroke-linecap="round" stroke-miterlimit="10" x1="509.832" y1="503.454" x2="446.107" y2="452.884"/>
  	
  		<line fill="none" stroke="#FFFFFF" stroke-width="4" stroke-linecap="round" stroke-miterlimit="10" x1="546.791" y1="487.373" x2="456.078" y2="415.384"/>
  	
  		<line fill="none" stroke="#FFFFFF" stroke-width="4" stroke-linecap="round" stroke-miterlimit="10" x1="464.096" y1="512.988" x2="422.211" y2="479.298"/>
  </g>
</symbol>
<!-- Blink -->
<symbol id="blink" viewBox="0 0 800 800">
  <g id="laeegg">
  	<path d="M379.917,594.327c-13.999,0-26.982-3.276-34.946-8.792c-14.299,1.021-25.427,6.823-25.54,6.883l-2.934,1.55v-3.317
  		c0-15.928,14.673-28.886,32.709-28.886c0.252,0,0.507,0.003,0.771,0.011l0.085-0.414l2.895,0.598
  		c2.528,0.255,5.005,0.766,7.365,1.518l23.667,4.875c7.842-11.024,20.835-32.492,25.514-59.03
  		c6.695-37.968-6.411-72.578-6.544-72.923l-1.275-3.306l3.488,0.614c40.028,7.059,66.853,45.366,59.793,85.395
  		c-3.62,20.531-15.653,38.403-33.208,49.5c7.307,5.461,11.581,13.505,11.581,22.05v3.313l-2.933-1.544
  		c-0.113-0.06-11.283-5.864-25.541-6.884C406.898,591.051,393.916,594.327,379.917,594.327z"/>
  	<path fill="#FFFFFF" d="M404.823,435.676c39.004,6.878,65.049,44.072,58.171,83.077c-3.843,21.794-17.155,39.534-34.956,49.754
  		c8.031,4.85,13.299,12.956,13.299,22.144c0,0-11.817-6.243-27.053-7.156c-7.273,5.313-19.943,8.834-34.367,8.834
  		s-27.094-3.521-34.367-8.834c-15.234,0.913-27.053,7.156-27.053,7.156c0-14.849,13.749-26.886,30.709-26.886
  		c0.806,0,1.602,0.036,2.392,0.089c0.009-0.043,0.014-0.086,0.021-0.129c0,0,0.364,0.075,1.034,0.213
  		c2.487,0.244,4.887,0.743,7.158,1.476c5.437,1.12,13.116,2.702,21.638,4.457c1.151,0.237,2.288,0.472,3.406,0.702
  		c7.567-10.443,21.679-32.901,26.615-60.904C418.35,470.664,404.823,435.676,404.823,435.676 M398.536,430.506l2.557,6.612
  		c0.183,0.476,13.02,34.55,6.439,71.854c-4.466,25.327-16.631,45.992-24.424,57.154l-0.853-0.176l-21.43-4.414
  		c-2.429-0.767-4.973-1.29-7.566-1.56l-0.83-0.171l-3.925-0.812l-0.159,0.777c-18.742,0.407-33.848,14.102-33.848,30.875v6.638
  		l5.869-3.101c0.103-0.055,10.589-5.484,24.063-6.604c8.331,5.494,21.44,8.744,35.487,8.744c14.046,0,27.157-3.25,35.487-8.744
  		c13.55,1.12,23.957,6.547,24.063,6.604l5.868,3.101v-6.638c0-8.295-3.729-16.136-10.204-21.877
  		c16.775-11.473,28.243-29.148,31.801-49.324c7.25-41.113-20.301-80.461-61.416-87.711L398.536,430.506L398.536,430.506z"/>
  </g>
  <g id="headLine_3_">
  	<path d="M262.778,364.813c-35.944,0-65.187-29.243-65.187-65.187s29.243-65.187,65.187-65.187
  		c35.944,0,65.187,29.243,65.187,65.187S298.723,364.813,262.778,364.813z"/>
  	<path fill="#FFFFFF" d="M262.778,236.439c34.897,0,63.187,28.29,63.187,63.187s-28.29,63.187-63.187,63.187
  		s-63.187-28.29-63.187-63.187C199.592,264.729,227.881,236.439,262.778,236.439 M262.778,232.439
  		c-37.047,0-67.187,30.14-67.187,67.187s30.14,67.187,67.187,67.187c37.047,0,67.187-30.14,67.187-67.187
  		S299.825,232.439,262.778,232.439L262.778,232.439z"/>
  </g>
  <g id="tail_4_">
  	<path d="M574,297.626h85.621v2c0,66.627-30.027,128.553-82.382,169.899L574,472.084V297.626z"/>
  	<path fill="#FFFFFF" d="M657.621,299.626c0,68.264-31.909,129.071-81.621,168.33v-168.33H657.621 M661.621,295.626h-4H576h-4v4
  		v168.33v8.256l6.479-5.117c25.331-20.005,46.271-45.817,60.559-74.649c14.984-30.246,22.584-62.82,22.584-96.818V295.626
  		L661.621,295.626z"/>
  </g>
  <g id="body_4_">
  	<path d="M443.247,516.002c-57.796,0-112.133-22.507-153-63.375c-40.868-40.867-63.375-95.204-63.375-153v-0.972l69.819-54.905
  		l282.528,224.212l-1.982,1.565C538.737,499.932,492.404,516.002,443.247,516.002z"/>
  	<path fill="#FFFFFF" d="M296.685,246.299l279.311,221.66c-36.508,28.831-82.617,46.043-132.749,46.043
  		c-118.396,0-214.375-95.979-214.375-214.375L296.685,246.299 M296.696,241.202l-2.484,1.954l-67.813,53.328l-1.527,1.201v1.943
  		c0,29.479,5.774,58.078,17.163,85.002c10.999,26.005,26.744,49.358,46.798,69.412c20.054,20.054,43.407,35.799,69.412,46.798
  		c26.925,11.388,55.523,17.162,85.003,17.162c24.979,0,49.479-4.185,72.817-12.438c22.555-7.978,43.553-19.572,62.41-34.466
  		l3.966-3.132l-3.958-3.141l-279.312-221.66L296.696,241.202L296.696,241.202z"/>
  </g>
  <g id="beak_3_">
  	<g>
  		<path d="M152.415,299.626l1.435-2.89c10.237-20.616,34.004-41.418,64.028-41.418c34.864,0,63.462,18.523,65.106,42.169
  			l0.149,2.139H152.415z"/>
  		<path fill="#FFFFFF" d="M217.877,257.318c33.896,0,61.551,17.871,63.111,40.308H155.641
  			C164.695,279.391,187.335,257.318,217.877,257.318 M217.877,253.318c-30.88,0-55.308,21.36-65.819,42.529l-2.87,5.779h6.452
  			h125.348h4.288l-0.297-4.277C283.262,272.659,253.788,253.318,217.877,253.318L217.877,253.318z"/>
  	</g>
  	<g>
  		<path d="M217.877,343.934c-31.468,0-57.293-26.999-64.127-41.453l-1.35-2.855h130.732l-0.149,2.139
  			C281.34,325.411,252.742,343.934,217.877,343.934z"/>
  		<path fill="#FFFFFF" d="M280.989,301.626c-1.56,22.437-29.216,40.308-63.111,40.308c-30.227,0-55.467-25.814-62.319-40.308
  			H280.989 M285.276,297.626h-4.288h-125.43h-6.315l2.699,5.709c3.288,6.955,11.214,17.718,23.6,27.072
  			c9.379,7.083,24.338,15.527,42.335,15.527c35.91,0,65.385-19.34,67.102-44.031L285.276,297.626L285.276,297.626z"/>
  	</g>
  </g>
  <g id="head_3_">
  	<g>
  		<circle cx="262.779" cy="299.626" r="63.187"/>
  	</g>
  	<path fill="none" stroke="#FFFFFF" stroke-width="4" stroke-linecap="round" stroke-miterlimit="10" d="M263.998,365.252
  		c-36.244,0-65.626-29.382-65.626-65.626S227.754,234,263.998,234"/>
  </g>
  <path id="eye_1_" fill="#FFFFFF" d="M296.685,303.626h-67.813c-2.209,0-4-1.791-4-4s1.791-4,4-4h67.813c2.209,0,4,1.791,4,4
  	S298.894,303.626,296.685,303.626z"/>
  <g id="wingLines_1_">
  	<path fill="none" stroke="#FFFFFF" stroke-width="4" stroke-linecap="round" stroke-miterlimit="10" d="M343.288,331.919
  		c-32.798,11.625-56.289,42.921-56.289,79.703c0,46.688,37.85,84.539,84.54,84.539c46.689,0,84.54-37.852,84.54-84.539
  		c0-26.387-12.089-49.95-31.031-65.453"/>
  	
  		<line fill="none" stroke="#FFFFFF" stroke-width="4" stroke-linecap="round" stroke-miterlimit="10" x1="509.832" y1="503.454" x2="446.107" y2="452.884"/>
  	
  		<line fill="none" stroke="#FFFFFF" stroke-width="4" stroke-linecap="round" stroke-miterlimit="10" x1="546.791" y1="487.373" x2="456.078" y2="415.384"/>
  	
  		<line fill="none" stroke="#FFFFFF" stroke-width="4" stroke-linecap="round" stroke-miterlimit="10" x1="464.096" y1="512.988" x2="422.211" y2="479.298"/>
  </g>
</symbol>
<!-- Mouth 1 -->
<symbol id="mouth1" viewBox="0 0 800 800">
  <g id="laeegg">
  	<path d="M379.917,594.327c-13.999,0-26.982-3.276-34.946-8.792c-14.299,1.021-25.427,6.823-25.54,6.883l-2.934,1.55v-3.317
  		c0-15.928,14.673-28.886,32.709-28.886c0.252,0,0.507,0.003,0.771,0.011l0.085-0.414l2.895,0.598
  		c2.528,0.255,5.005,0.766,7.365,1.518l23.667,4.875c7.842-11.024,20.835-32.492,25.514-59.03
  		c6.695-37.968-6.411-72.578-6.544-72.923l-1.275-3.306l3.488,0.614c40.028,7.059,66.853,45.366,59.793,85.395
  		c-3.62,20.531-15.653,38.403-33.208,49.5c7.307,5.461,11.581,13.505,11.581,22.05v3.313l-2.933-1.544
  		c-0.113-0.06-11.283-5.864-25.541-6.884C406.898,591.051,393.916,594.327,379.917,594.327z"/>
  	<path fill="#FFFFFF" d="M404.823,435.676c39.004,6.878,65.049,44.072,58.171,83.077c-3.843,21.794-17.155,39.534-34.956,49.754
  		c8.031,4.85,13.299,12.956,13.299,22.144c0,0-11.817-6.243-27.053-7.156c-7.273,5.313-19.943,8.834-34.367,8.834
  		s-27.094-3.521-34.367-8.834c-15.234,0.913-27.053,7.156-27.053,7.156c0-14.849,13.749-26.886,30.709-26.886
  		c0.806,0,1.602,0.036,2.392,0.089c0.009-0.043,0.014-0.086,0.021-0.129c0,0,0.364,0.075,1.034,0.213
  		c2.487,0.244,4.887,0.743,7.158,1.476c5.437,1.12,13.116,2.702,21.638,4.457c1.151,0.237,2.288,0.472,3.406,0.702
  		c7.567-10.443,21.679-32.901,26.615-60.904C418.35,470.664,404.823,435.676,404.823,435.676 M398.536,430.506l2.557,6.612
  		c0.183,0.476,13.02,34.55,6.439,71.854c-4.466,25.327-16.631,45.992-24.424,57.154l-0.853-0.176l-21.43-4.414
  		c-2.429-0.767-4.973-1.29-7.566-1.56l-0.83-0.171l-3.925-0.812l-0.159,0.777c-18.742,0.407-33.848,14.102-33.848,30.875v6.638
  		l5.869-3.101c0.103-0.055,10.589-5.484,24.063-6.604c8.331,5.494,21.44,8.744,35.487,8.744c14.046,0,27.157-3.25,35.487-8.744
  		c13.55,1.12,23.957,6.547,24.063,6.604l5.868,3.101v-6.638c0-8.295-3.729-16.136-10.204-21.877
  		c16.775-11.473,28.243-29.148,31.801-49.324c7.25-41.113-20.301-80.461-61.416-87.711L398.536,430.506L398.536,430.506z"/>
  </g>
  <g id="headLine_9_">
  	<path d="M262.778,364.813c-35.944,0-65.187-29.243-65.187-65.187s29.243-65.187,65.187-65.187
  		c35.944,0,65.187,29.243,65.187,65.187S298.723,364.813,262.778,364.813z"/>
  	<path fill="#FFFFFF" d="M262.778,236.439c34.897,0,63.187,28.29,63.187,63.187s-28.29,63.187-63.187,63.187
  		s-63.187-28.29-63.187-63.187C199.592,264.729,227.881,236.439,262.778,236.439 M262.778,232.439
  		c-37.047,0-67.187,30.14-67.187,67.187s30.14,67.187,67.187,67.187c37.047,0,67.187-30.14,67.187-67.187
  		S299.825,232.439,262.778,232.439L262.778,232.439z"/>
  </g>
  <g id="tail_9_">
  	<path d="M574,297.626h85.621v2c0,66.627-30.027,128.553-82.382,169.899L574,472.084V297.626z"/>
  	<path fill="#FFFFFF" d="M657.621,299.626c0,68.264-31.909,129.071-81.621,168.33v-168.33H657.621 M661.621,295.626h-4H576h-4v4
  		v168.33v8.256l6.479-5.117c25.331-20.005,46.271-45.817,60.559-74.649c14.984-30.246,22.584-62.82,22.584-96.818V295.626
  		L661.621,295.626z"/>
  </g>
  <g id="body_9_">
  	<path d="M443.247,516.002c-57.796,0-112.133-22.507-153-63.375c-40.868-40.867-63.375-95.204-63.375-153v-0.972l69.819-54.905
  		l282.528,224.212l-1.982,1.565C538.737,499.932,492.404,516.002,443.247,516.002z"/>
  	<path fill="#FFFFFF" d="M296.685,246.299l279.311,221.66c-36.508,28.831-82.617,46.043-132.749,46.043
  		c-118.396,0-214.375-95.979-214.375-214.375L296.685,246.299 M296.696,241.202l-2.484,1.954l-67.813,53.328l-1.527,1.201v1.943
  		c0,29.479,5.774,58.078,17.163,85.002c10.999,26.005,26.744,49.358,46.798,69.412c20.054,20.054,43.407,35.799,69.412,46.798
  		c26.925,11.388,55.523,17.162,85.003,17.162c24.979,0,49.479-4.185,72.817-12.438c22.555-7.978,43.553-19.572,62.41-34.466
  		l3.966-3.132l-3.958-3.141l-279.312-221.66L296.696,241.202L296.696,241.202z"/>
  </g>
  <g id="beak_7_">
  	<g>
  		<path d="M152.833,288.983l1.701-2.741c10.959-17.656,34.234-35.471,61.528-35.471c2.033,0,4.094,0.098,6.127,0.291
  			c34.708,3.296,61.427,24.439,60.829,48.134l-0.054,2.144L152.833,288.983z"/>
  		<path fill="#FFFFFF" d="M216.062,252.772c1.952,0,3.934,0.092,5.938,0.282c33.744,3.204,59.586,23.609,59.018,46.093
  			l-124.785-11.85C166.262,271.141,188.406,252.772,216.062,252.772 M216.062,248.772c-13.307,0-26.687,4.095-38.693,11.843
  			c-9.984,6.442-18.697,15.168-24.534,24.573l-3.403,5.481l6.423,0.61l124.785,11.85l4.269,0.405l0.108-4.286
  			c0.625-24.741-26.889-46.781-62.639-50.176C220.283,248.873,218.158,248.772,216.062,248.772L216.062,248.772z"/>
  	</g>
  	<g>
  		<path d="M215.255,351.889c-24.925,0-48.738-14.975-57.687-25.607l-2.033-2.416l126.405-33.354l0.402,2.106
  			c4.444,23.284-18.482,48.49-52.192,57.384c-4.746,1.252-9.757,1.887-14.893,1.887
  			C215.256,351.889,215.256,351.889,215.255,351.889z"/>
  		<path fill="#FFFFFF" d="M280.378,292.993c4.216,22.091-17.965,46.428-50.738,55.076c-4.781,1.262-9.607,1.821-14.384,1.821
  			c-24.427,0-47.521-14.635-56.156-24.895L280.378,292.993 M283.503,288.031l-4.146,1.094l-121.279,32.001l-6.106,1.611l4.066,4.832
  			c5.097,6.056,13.856,12.522,23.431,17.299c8.25,4.115,21.156,9.021,35.786,9.021c5.31,0,10.493-0.657,15.405-1.953
  			c34.722-9.162,58.287-35.382,53.647-59.693L283.503,288.031L283.503,288.031z"/>
  	</g>
  </g>
  <g id="head_7_">
  	<g>
  		<circle cx="262.779" cy="299.626" r="63.187"/>
  	</g>
  	<path fill="none" stroke="#FFFFFF" stroke-width="4" stroke-linecap="round" stroke-miterlimit="10" d="M263.998,365.252
  		c-36.244,0-65.626-29.382-65.626-65.626S227.754,234,263.998,234"/>
  </g>
  <g id="eye_6_">
  	<circle fill="#FFFFFF" cx="262.779" cy="299.626" r="33.906"/>
  	<circle cx="262.779" cy="299.626" r="11.928"/>
  </g>
  <g id="wingLines_3_">
  	<path fill="none" stroke="#FFFFFF" stroke-width="4" stroke-linecap="round" stroke-miterlimit="10" d="M343.288,331.919
  		c-32.798,11.625-56.289,42.921-56.289,79.703c0,46.688,37.85,84.539,84.54,84.539c46.689,0,84.54-37.852,84.54-84.539
  		c0-26.387-12.089-49.95-31.031-65.453"/>
  	
  		<line fill="none" stroke="#FFFFFF" stroke-width="4" stroke-linecap="round" stroke-miterlimit="10" x1="509.832" y1="503.454" x2="446.107" y2="452.884"/>
  	
  		<line fill="none" stroke="#FFFFFF" stroke-width="4" stroke-linecap="round" stroke-miterlimit="10" x1="546.791" y1="487.373" x2="456.078" y2="415.384"/>
  	
  		<line fill="none" stroke="#FFFFFF" stroke-width="4" stroke-linecap="round" stroke-miterlimit="10" x1="464.096" y1="512.988" x2="422.211" y2="479.298"/>
  </g>
</symbol>
<!-- Mouth 2 -->
<symbol id="mouth2" viewBox="0 0 800 800">
  <g id="laeegg">
  	<path d="M379.917,594.327c-13.999,0-26.982-3.276-34.946-8.792c-14.299,1.021-25.427,6.823-25.54,6.883l-2.934,1.55v-3.317
  		c0-15.928,14.673-28.886,32.709-28.886c0.252,0,0.507,0.003,0.771,0.011l0.085-0.414l2.895,0.598
  		c2.528,0.255,5.005,0.766,7.365,1.518l23.667,4.875c7.842-11.024,20.835-32.492,25.514-59.03
  		c6.695-37.968-6.411-72.578-6.544-72.923l-1.275-3.306l3.488,0.614c40.028,7.059,66.853,45.366,59.793,85.395
  		c-3.62,20.531-15.653,38.403-33.208,49.5c7.307,5.461,11.581,13.505,11.581,22.05v3.313l-2.933-1.544
  		c-0.113-0.06-11.283-5.864-25.541-6.884C406.898,591.051,393.916,594.327,379.917,594.327z"/>
  	<path fill="#FFFFFF" d="M404.823,435.676c39.004,6.878,65.049,44.072,58.171,83.077c-3.843,21.794-17.155,39.534-34.956,49.754
  		c8.031,4.85,13.299,12.956,13.299,22.144c0,0-11.817-6.243-27.053-7.156c-7.273,5.313-19.943,8.834-34.367,8.834
  		s-27.094-3.521-34.367-8.834c-15.234,0.913-27.053,7.156-27.053,7.156c0-14.849,13.749-26.886,30.709-26.886
  		c0.806,0,1.602,0.036,2.392,0.089c0.009-0.043,0.014-0.086,0.021-0.129c0,0,0.364,0.075,1.034,0.213
  		c2.487,0.244,4.887,0.743,7.158,1.476c5.437,1.12,13.116,2.702,21.638,4.457c1.151,0.237,2.288,0.472,3.406,0.702
  		c7.567-10.443,21.679-32.901,26.615-60.904C418.35,470.664,404.823,435.676,404.823,435.676 M398.536,430.506l2.557,6.612
  		c0.183,0.476,13.02,34.55,6.439,71.854c-4.466,25.327-16.631,45.992-24.424,57.154l-0.853-0.176l-21.43-4.414
  		c-2.429-0.767-4.973-1.29-7.566-1.56l-0.83-0.171l-3.925-0.812l-0.159,0.777c-18.742,0.407-33.848,14.102-33.848,30.875v6.638
  		l5.869-3.101c0.103-0.055,10.589-5.484,24.063-6.604c8.331,5.494,21.44,8.744,35.487,8.744c14.046,0,27.157-3.25,35.487-8.744
  		c13.55,1.12,23.957,6.547,24.063,6.604l5.868,3.101v-6.638c0-8.295-3.729-16.136-10.204-21.877
  		c16.775-11.473,28.243-29.148,31.801-49.324c7.25-41.113-20.301-80.461-61.416-87.711L398.536,430.506L398.536,430.506z"/>
  </g>
  <g id="headLine_5_">
  	<path d="M262.778,364.813c-35.944,0-65.187-29.243-65.187-65.187s29.243-65.187,65.187-65.187
  		c35.944,0,65.187,29.243,65.187,65.187S298.723,364.813,262.778,364.813z"/>
  	<path fill="#FFFFFF" d="M262.778,236.439c34.897,0,63.187,28.29,63.187,63.187s-28.29,63.187-63.187,63.187
  		s-63.187-28.29-63.187-63.187C199.592,264.729,227.881,236.439,262.778,236.439 M262.778,232.439
  		c-37.047,0-67.187,30.14-67.187,67.187s30.14,67.187,67.187,67.187c37.047,0,67.187-30.14,67.187-67.187
  		S299.825,232.439,262.778,232.439L262.778,232.439z"/>
  </g>
  <g id="tail_5_">
  	<path d="M574,297.626h85.621v2c0,66.627-30.027,128.553-82.382,169.899L574,472.084V297.626z"/>
  	<path fill="#FFFFFF" d="M657.621,299.626c0,68.264-31.909,129.071-81.621,168.33v-168.33H657.621 M661.621,295.626h-4H576h-4v4
  		v168.33v8.256l6.479-5.117c25.331-20.005,46.271-45.817,60.559-74.649c14.984-30.246,22.584-62.82,22.584-96.818V295.626
  		L661.621,295.626z"/>
  </g>
  <g id="body_5_">
  	<path d="M443.247,516.002c-57.796,0-112.133-22.507-153-63.375c-40.868-40.867-63.375-95.204-63.375-153v-0.972l69.819-54.905
  		l282.528,224.212l-1.982,1.565C538.737,499.932,492.404,516.002,443.247,516.002z"/>
  	<path fill="#FFFFFF" d="M296.685,246.299l279.311,221.66c-36.508,28.831-82.617,46.043-132.749,46.043
  		c-118.396,0-214.375-95.979-214.375-214.375L296.685,246.299 M296.696,241.202l-2.484,1.954l-67.813,53.328l-1.527,1.201v1.943
  		c0,29.479,5.774,58.078,17.163,85.002c10.999,26.005,26.744,49.358,46.798,69.412c20.054,20.054,43.407,35.799,69.412,46.798
  		c26.925,11.388,55.523,17.162,85.003,17.162c24.979,0,49.479-4.185,72.817-12.438c22.555-7.978,43.553-19.572,62.41-34.466
  		l3.966-3.132l-3.958-3.141l-279.312-221.66L296.696,241.202L296.696,241.202z"/>
  </g>
  <g id="beak_5_">
  	<g>
  		<path d="M154.143,277.501l2.134-2.419c10.43-11.828,31.302-25.641,55.802-25.641c5.662,0,11.302,0.742,16.764,2.206
  			c33.676,9.023,56.506,34.317,51.974,57.583l-0.41,2.104L154.143,277.501z"/>
  		<path fill="#FFFFFF" d="M212.079,251.441c5.295,0,10.738,0.661,16.246,2.137c32.741,8.773,54.829,33.193,50.528,55.269
  			l-121.076-32.442C168.728,263.986,189.014,251.441,212.079,251.441 M212.079,247.441c-11.176,0-22.756,2.853-33.491,8.251
  			c-9.13,4.591-17.586,11.007-23.811,18.067l-4.268,4.839l6.232,1.67l121.076,32.442l4.142,1.11l0.82-4.209
  			c4.732-24.292-18.732-50.603-53.419-59.897C223.729,248.206,217.915,247.441,212.079,247.441L212.079,247.441z"/>
  	</g>
  	<g>
  		<path d="M209.975,354.994c-18.196,0-35.021-6.01-43.623-11.966l-2.596-1.798l113.217-65.366l0.941,1.927
  			c10.399,21.3-5.106,51.641-35.299,69.073c-9.344,5.395-20.325,8.13-32.636,8.13C209.977,354.994,209.977,354.994,209.975,354.994z
  			"/>
  		<path fill="#FFFFFF" d="M276.117,278.669c9.867,20.21-5.148,49.516-34.502,66.463c-9.866,5.696-20.949,7.862-31.639,7.862
  			c-17.675,0-34.271-5.924-42.485-11.61L276.117,278.669 M277.83,273.061l-3.713,2.144L165.491,337.92l-5.469,3.158l5.192,3.595
  			c8.858,6.133,26.135,12.322,44.762,12.322c12.669,0,23.987-2.825,33.639-8.397c31.099-17.956,46.955-49.442,36.096-71.683
  			L277.83,273.061L277.83,273.061z"/>
  	</g>
  </g>
  <g id="head_5_">
  	<g>
  		<circle cx="262.779" cy="299.626" r="63.187"/>
  	</g>
  	<path fill="none" stroke="#FFFFFF" stroke-width="4" stroke-linecap="round" stroke-miterlimit="10" d="M263.998,365.252
  		c-36.244,0-65.626-29.382-65.626-65.626S227.754,234,263.998,234"/>
  </g>
  <g id="eye_5_">
  	<circle fill="#FFFFFF" cx="262.779" cy="299.626" r="33.906"/>
  	<circle cx="262.779" cy="299.626" r="11.928"/>
  </g>
  <g id="wingLines_2_">
  	<path fill="none" stroke="#FFFFFF" stroke-width="4" stroke-linecap="round" stroke-miterlimit="10" d="M343.288,331.919
  		c-32.798,11.625-56.289,42.921-56.289,79.703c0,46.688,37.85,84.539,84.54,84.539c46.689,0,84.54-37.852,84.54-84.539
  		c0-26.387-12.089-49.95-31.031-65.453"/>
  	
  		<line fill="none" stroke="#FFFFFF" stroke-width="4" stroke-linecap="round" stroke-miterlimit="10" x1="509.832" y1="503.454" x2="446.107" y2="452.884"/>
  	
  		<line fill="none" stroke="#FFFFFF" stroke-width="4" stroke-linecap="round" stroke-miterlimit="10" x1="546.791" y1="487.373" x2="456.078" y2="415.384"/>
  	
  		<line fill="none" stroke="#FFFFFF" stroke-width="4" stroke-linecap="round" stroke-miterlimit="10" x1="464.096" y1="512.988" x2="422.211" y2="479.298"/>
  </g>
</symbol>
<!-- Fly 1 -->
<symbol id="fly1" viewBox="0 0 800 880">
  <g id="laeegg_4_">
  	<path d="M549.718,567.292c-9.864,0-19.711-5.001-26.338-13.378c-9.532-12.049-10.354-28.234-2.137-38.987
  		c-11.312-9.494-29.188-21.883-51.517-28.56c-12.258-3.666-25.641-5.525-39.774-5.525c-19.331,0-33.275,3.544-33.414,3.58
  		l-3.432,0.887l1.016-3.396c4.638-15.505,13.968-28.746,26.983-38.291c12.591-9.233,28.077-14.319,43.609-14.319
  		c7.135,0,14.251,1.047,21.151,3.11c28.469,8.515,49.223,33.757,52.219,63.207c0.689-0.059,1.385-0.087,2.082-0.087
  		c5.84,0,12.059,2.058,17.983,5.952c15.07,9.904,20.217,28.794,11.47,42.104l-1.821,2.771l-1.603-2.904
  		c-0.068-0.124-6.624-11.84-18.724-20.649c-0.224,1.651-0.467,3.889-0.679,5.841c-0.532,4.886-1.129,10.361-1.946,14.058
  		c9.604,10.404,20.93,15.492,21.046,15.544l3.029,1.341l-2.597,2.058C561.658,565.34,555.915,567.292,549.718,567.292z"/>
  	<path fill="#FFFFFF" d="M464.716,431.302c6.804,0,13.726,0.978,20.578,3.026c29.356,8.78,48.891,34.688,50.98,63.538
  		c1.269-0.223,2.567-0.334,3.894-0.334c5.352,0,11.111,1.829,16.885,5.623c14.174,9.314,19.051,26.927,10.896,39.336
  		c0,0-7.497-13.629-21.669-22.943c-0.018-0.011-0.033-0.017-0.052-0.017c-0.933,0-1.789,16.913-3.57,23.733
  		c10.175,11.406,22.429,16.813,22.429,16.813c-4.455,3.523-9.834,5.215-15.369,5.215c-8.934,0-18.271-4.406-24.77-12.619
  		c-9.363-11.835-9.666-27.585-1.418-37.403c-0.057-0.39-0.093-0.763-0.134-1.141c-10.73-9.136-29.435-22.602-53.097-29.678
  		c-14.301-4.277-28.366-5.609-40.349-5.609c-19.81,0-33.914,3.645-33.914,3.645C405.338,451.393,433.846,431.301,464.716,431.302
  		 M464.716,427.302v4V427.302c-15.954,0-31.862,5.224-44.794,14.706c-13.368,9.805-22.952,23.405-27.716,39.331l-2.032,6.792
  		l6.864-1.771c0.135-0.034,13.909-3.518,32.914-3.518c13.939,0,27.13,1.831,39.202,5.441c21.091,6.308,38.173,17.803,49.384,26.997
  		c-7.561,11.432-6.375,27.679,3.272,39.874c7.004,8.853,17.437,14.138,27.906,14.138c6.652,0,12.825-2.102,17.852-6.078l5.206-4.118
  		l-6.073-2.679c-0.104-0.046-10.545-4.754-19.684-14.324c0.731-3.736,1.275-8.73,1.767-13.229c0.081-0.746,0.167-1.537,0.254-2.318
  		c9.96,8.17,15.348,17.77,15.409,17.879l3.207,5.791l3.638-5.526c9.353-14.232,3.951-34.364-12.042-44.875
  		c-6.252-4.108-12.851-6.28-19.082-6.28c-0.102,0-0.203,0-0.305,0.002c-1.726-13.661-7.113-26.53-15.713-37.439
  		c-9.664-12.259-22.704-21.109-37.711-25.599C479.354,428.377,472.046,427.302,464.716,427.302L464.716,427.302z"/>
  </g>
  <g id="wingLine_2_">
  	<path fill="#FFFFFF" d="M351.41,61.907c40.939,22.092,75.016,57.604,94.885,103.63c30.479,70.606,20.033,148.577-20.822,207.415
  		c-22.043,31.745-52.939,57.923-91.035,74.368l-77.118-34.276l22.353-83.419L351.41,61.907 M348.856,55.983l-1.311,4.888
  		l-71.737,267.717l-22.353,83.419l-0.885,3.302l3.124,1.39l77.117,34.275l1.602,0.712l1.609-0.693
  		c37.491-16.187,69.56-42.382,92.734-75.76c20.795-29.947,33.884-64.921,37.854-101.14c4.093-37.352-1.663-75.438-16.644-110.142
  		c-9.9-22.934-23.453-43.769-40.279-61.924c-16.264-17.546-35.231-32.229-56.379-43.641L348.856,55.983L348.856,55.983z"/>
  </g>
  <g id="headLine_4_">
  	<path fill="#FFFFFF" d="M192.015,328.895c34.897,0,63.187,28.29,63.187,63.187c0,34.896-28.29,63.188-63.187,63.188
  		s-63.187-28.289-63.187-63.188C128.828,357.185,157.118,328.895,192.015,328.895 M192.015,324.895
  		c-37.047,0-67.187,30.14-67.187,67.187s30.14,67.188,67.187,67.188c37.047,0,67.187-30.141,67.187-67.188
  		S229.062,324.895,192.015,324.895L192.015,324.895z"/>
  </g>
  <g id="tail_3_">
  	<path d="M724.871,413.915c-66.49-0.001-128.337-29.931-169.68-82.115l-2.568-3.242h174.593v85.354L724.871,413.915z"/>
  	<path fill="#FFFFFF" d="M725.216,330.558v81.357c-0.116,0-0.228,0-0.345,0c-68.121,0-128.844-31.792-168.112-81.357H725.216
  		 M729.216,326.558h-4H556.759h-8.271l5.137,6.484c20.009,25.255,45.805,46.13,74.6,60.368
  		c30.202,14.934,62.721,22.506,96.648,22.506h0.352l3.993-0.007v-3.993v-81.357L729.216,326.558L729.216,326.558z"/>
  </g>
  <g id="body_3_">
  	<path d="M348.352,497.295c-66.637-0.002-128.539-29.938-169.833-82.135l-0.543-0.688l13.55-85.915l367.764,0.004l-0.584,2.462
  		c-11.329,47.73-37.694,89.081-76.246,119.579c-38.608,30.546-84.984,46.692-134.103,46.692
  		C348.353,497.295,348.354,497.295,348.352,497.295z"/>
  	<path fill="#FFFFFF" d="M193.234,330.558l363.524,0.004c-10.743,45.263-36.226,87.369-75.541,118.473
  		c-39.37,31.146-86.282,46.261-132.866,46.261c-63.281,0-125.954-27.895-168.265-81.376L193.234,330.558 M189.816,326.558
  		l-0.533,3.377l-13.148,83.361l-0.273,1.73l1.087,1.374c21.073,26.637,47.213,47.455,77.695,61.878
  		c29.059,13.749,61.462,21.017,93.707,21.017c24.063,0,47.76-3.925,70.432-11.665c23.458-8.008,45.299-19.938,64.917-35.459
  		c19.591-15.498,36.208-33.979,49.39-54.934c12.739-20.25,22.013-42.372,27.563-65.752l1.169-4.924h-5.062l-363.524-0.004
  		L189.816,326.558L189.816,326.558z"/>
  </g>
  <g id="beak_4_">
  	<g>
  		<path d="M81.651,392.081l1.435-2.89c10.237-20.616,34.004-41.418,64.028-41.418c34.864,0,63.462,18.523,65.106,42.169l0.149,2.139
  			H81.651z"/>
  		<path fill="#FFFFFF" d="M147.114,349.773c33.896,0,61.551,17.872,63.111,40.308H84.877
  			C93.932,371.846,116.572,349.773,147.114,349.773 M147.114,345.773c-30.88,0-55.308,21.36-65.819,42.529l-2.87,5.779h6.452
  			h125.348h4.288l-0.297-4.277C212.499,365.114,183.024,345.773,147.114,345.773L147.114,345.773z"/>
  	</g>
  	<g>
  		<path d="M147.114,436.39c-31.467,0-57.293-26.999-64.127-41.454l-1.35-2.855h130.732l-0.149,2.139
  			C210.576,417.866,181.978,436.39,147.114,436.39z"/>
  		<path fill="#FFFFFF" d="M210.225,394.081c-1.56,22.437-29.216,40.309-63.111,40.309c-30.227,0-55.467-25.814-62.319-40.309
  			H210.225 M214.513,390.081h-4.288H84.795H78.48l2.699,5.709c3.288,6.955,11.214,17.718,23.6,27.072
  			c9.379,7.083,24.338,15.526,42.335,15.526c35.91,0,65.385-19.341,67.102-44.031L214.513,390.081L214.513,390.081z"/>
  	</g>
  </g>
  <g id="head_4_">
  	<g>
  		<circle cx="192.015" cy="392.081" r="63.187"/>
  	</g>
  	<path fill="none" stroke="#FFFFFF" stroke-width="4" stroke-linecap="round" stroke-miterlimit="10" d="M193.234,457.708
  		c-36.244,0-65.626-29.383-65.626-65.627s29.382-65.626,65.626-65.626"/>
  </g>
  <g id="eye_4_">
  	<circle fill="#FFFFFF" cx="192.015" cy="392.081" r="33.906"/>
  	<circle cx="192.015" cy="392.081" r="11.928"/>
  </g>
  <g id="wing_4_">
  	<path d="M293.057,301.445c-19.853,31.605-18.786,73.565,5.692,104.506c31.071,39.271,88.1,45.925,127.375,14.853
  		c39.275-31.071,45.925-88.101,14.854-127.374c-17.563-22.197-43.412-33.974-69.663-34.407"/>
  	<path fill="none" stroke="#FFFFFF" stroke-width="4" stroke-linecap="round" stroke-miterlimit="10" d="M369.572,440.37
  		c19.818,0.076,39.801-6.313,56.552-19.566c39.275-31.071,45.925-88.101,14.854-127.374c-17.563-22.197-43.412-33.974-69.663-34.407
  		"/>
  	<g>
  		<path d="M257.32,413.043l77.118,34.276c38.096-16.445,68.992-42.623,91.035-74.368c40.855-58.838,51.302-136.809,20.822-207.415
  			c-19.869-46.026-53.945-81.538-94.885-103.63l-71.737,267.717L257.32,413.043z"/>
  	</g>
  	<path fill="none" stroke="#FFFFFF" stroke-width="4" stroke-miterlimit="10" d="M350.779,347.997
  		c9.384-7.675,17.521-16.545,24.281-26.281c24.707-35.581,31.023-82.732,12.593-125.431c-12.017-27.833-32.623-49.309-57.381-62.668
  		"/>
  	
  		<line fill="none" stroke="#FFFFFF" stroke-width="4" stroke-miterlimit="10" x1="453.716" y1="317.116" x2="379.091" y2="317.116"/>
  	
  		<line fill="none" stroke="#FFFFFF" stroke-width="4" stroke-miterlimit="10" x1="391.829" y1="207.298" x2="451.199" y2="177.943"/>
  	
  		<line fill="none" stroke="#FFFFFF" stroke-width="4" stroke-miterlimit="10" x1="377.938" y1="177.943" x2="428.216" y2="131.617"/>
  	<line fill="none" stroke="#FFFFFF" stroke-width="4" stroke-miterlimit="10" x1="358.127" y1="153.78" x2="393.829" y2="90.161"/>
  	
  		<line fill="none" stroke="#FFFFFF" stroke-width="4" stroke-miterlimit="10" x1="398.303" y1="240.807" x2="463.545" y2="225.711"/>
  	<line fill="none" stroke="#FFFFFF" stroke-width="4" stroke-miterlimit="10" x1="395" y1="277.619" x2="463.545" y2="273.708"/>
  </g>
</symbol>
<!-- Fly 2 -->
<symbol id="fly2" viewBox="0 0 800 800">
  <g id="laeegg_2_">
  	<path d="M549.718,567.292c-9.864,0-19.711-5.001-26.338-13.378c-9.532-12.049-10.354-28.234-2.137-38.987
  		c-11.312-9.494-29.188-21.883-51.517-28.56c-12.258-3.666-25.641-5.525-39.774-5.525c-19.331,0-33.275,3.544-33.414,3.58
  		l-3.432,0.887l1.016-3.396c4.638-15.505,13.968-28.746,26.983-38.291c12.591-9.233,28.077-14.319,43.609-14.319
  		c7.135,0,14.251,1.047,21.151,3.11c28.469,8.515,49.223,33.757,52.219,63.207c0.689-0.059,1.385-0.087,2.082-0.087
  		c5.84,0,12.059,2.058,17.983,5.952c15.07,9.904,20.217,28.794,11.47,42.104l-1.821,2.771l-1.603-2.904
  		c-0.068-0.124-6.624-11.84-18.724-20.649c-0.224,1.651-0.467,3.889-0.679,5.841c-0.532,4.886-1.129,10.361-1.946,14.058
  		c9.604,10.404,20.93,15.492,21.046,15.544l3.029,1.341l-2.597,2.058C561.658,565.34,555.915,567.292,549.718,567.292z"/>
  	<path fill="#FFFFFF" d="M464.716,431.302c6.804,0,13.726,0.978,20.578,3.026c29.356,8.78,48.891,34.688,50.98,63.538
  		c1.269-0.223,2.567-0.334,3.894-0.334c5.352,0,11.111,1.829,16.885,5.623c14.174,9.314,19.051,26.927,10.896,39.336
  		c0,0-7.497-13.629-21.669-22.943c-0.018-0.011-0.033-0.017-0.052-0.017c-0.933,0-1.789,16.913-3.57,23.733
  		c10.175,11.406,22.429,16.813,22.429,16.813c-4.455,3.523-9.834,5.215-15.369,5.215c-8.934,0-18.271-4.406-24.77-12.619
  		c-9.363-11.835-9.666-27.585-1.418-37.403c-0.057-0.39-0.093-0.763-0.134-1.141c-10.73-9.136-29.435-22.602-53.097-29.678
  		c-14.301-4.277-28.366-5.609-40.349-5.609c-19.81,0-33.914,3.645-33.914,3.645C405.338,451.393,433.846,431.301,464.716,431.302
  		 M464.716,427.302v4V427.302c-15.954,0-31.862,5.224-44.794,14.706c-13.368,9.805-22.952,23.405-27.716,39.331l-2.032,6.792
  		l6.864-1.771c0.135-0.034,13.909-3.518,32.914-3.518c13.939,0,27.13,1.831,39.202,5.441c21.091,6.308,38.173,17.803,49.384,26.997
  		c-7.561,11.432-6.375,27.679,3.272,39.874c7.004,8.853,17.437,14.138,27.906,14.138c6.652,0,12.825-2.102,17.852-6.078l5.206-4.118
  		l-6.073-2.679c-0.104-0.046-10.545-4.754-19.684-14.324c0.731-3.736,1.275-8.73,1.767-13.229c0.081-0.746,0.167-1.537,0.254-2.318
  		c9.96,8.17,15.348,17.77,15.409,17.879l3.207,5.791l3.638-5.526c9.353-14.232,3.951-34.364-12.042-44.875
  		c-6.252-4.108-12.851-6.28-19.082-6.28c-0.102,0-0.203,0-0.305,0.002c-1.726-13.661-7.113-26.53-15.713-37.439
  		c-9.664-12.259-22.704-21.109-37.711-25.599C479.354,428.377,472.046,427.302,464.716,427.302L464.716,427.302z"/>
  </g>
  <g id="headLine_2_">
  	<path fill="#FFFFFF" d="M192.015,328.895c34.897,0,63.187,28.29,63.187,63.187c0,34.896-28.29,63.188-63.187,63.188
  		s-63.187-28.289-63.187-63.188C128.828,357.185,157.118,328.895,192.015,328.895 M192.015,324.895
  		c-37.047,0-67.187,30.14-67.187,67.187s30.14,67.188,67.187,67.188c37.047,0,67.187-30.141,67.187-67.188
  		S229.062,324.895,192.015,324.895L192.015,324.895z"/>
  </g>
  <g id="tail_2_">
  	<path d="M724.871,413.915c-66.49-0.001-128.337-29.931-169.68-82.115l-2.568-3.242h174.593v85.354L724.871,413.915z"/>
  	<path fill="#FFFFFF" d="M725.216,330.558v81.357c-0.116,0-0.228,0-0.345,0c-68.121,0-128.844-31.792-168.112-81.357H725.216
  		 M729.216,326.558h-4H556.759h-8.271l5.137,6.484c20.009,25.255,45.805,46.13,74.6,60.368
  		c30.202,14.934,62.721,22.506,96.648,22.506h0.352l3.993-0.007v-3.993v-81.357L729.216,326.558L729.216,326.558z"/>
  </g>
  <g id="body_2_">
  	<path d="M348.352,497.295c-66.637-0.002-128.539-29.938-169.833-82.135l-0.543-0.688l13.55-85.915l367.764,0.004l-0.584,2.462
  		c-11.329,47.73-37.694,89.081-76.246,119.579c-38.608,30.546-84.984,46.692-134.103,46.692
  		C348.353,497.295,348.354,497.295,348.352,497.295z"/>
  	<path fill="#FFFFFF" d="M193.234,330.558l363.524,0.004c-10.743,45.263-36.226,87.369-75.541,118.473
  		c-39.37,31.146-86.282,46.261-132.866,46.261c-63.281,0-125.954-27.895-168.265-81.376L193.234,330.558 M189.816,326.558
  		l-0.533,3.377l-13.148,83.361l-0.273,1.73l1.087,1.374c21.073,26.637,47.213,47.455,77.695,61.878
  		c29.059,13.749,61.462,21.017,93.707,21.017c24.063,0,47.76-3.925,70.432-11.665c23.458-8.008,45.299-19.938,64.917-35.459
  		c19.591-15.498,36.208-33.979,49.39-54.934c12.739-20.25,22.013-42.372,27.563-65.752l1.169-4.924h-5.062l-363.524-0.004
  		L189.816,326.558L189.816,326.558z"/>
  </g>
  <g id="beak_2_">
  	<g>
  		<path d="M81.651,392.081l1.435-2.89c10.237-20.616,34.004-41.418,64.028-41.418c34.864,0,63.462,18.523,65.106,42.169l0.149,2.139
  			H81.651z"/>
  		<path fill="#FFFFFF" d="M147.114,349.773c33.896,0,61.551,17.872,63.111,40.308H84.877
  			C93.932,371.846,116.572,349.773,147.114,349.773 M147.114,345.773c-30.88,0-55.308,21.36-65.819,42.529l-2.87,5.779h6.452
  			h125.348h4.288l-0.297-4.277C212.499,365.114,183.024,345.773,147.114,345.773L147.114,345.773z"/>
  	</g>
  	<g>
  		<path d="M147.114,436.39c-31.467,0-57.293-26.999-64.127-41.454l-1.35-2.855h130.732l-0.149,2.139
  			C210.576,417.866,181.978,436.39,147.114,436.39z"/>
  		<path fill="#FFFFFF" d="M210.225,394.081c-1.56,22.437-29.216,40.309-63.111,40.309c-30.227,0-55.467-25.814-62.319-40.309
  			H210.225 M214.513,390.081h-4.288H84.795H78.48l2.699,5.709c3.288,6.955,11.214,17.718,23.6,27.072
  			c9.379,7.083,24.338,15.526,42.335,15.526c35.91,0,65.385-19.341,67.102-44.031L214.513,390.081L214.513,390.081z"/>
  	</g>
  </g>
  <g id="head_2_">
  	<g>
  		<circle cx="192.015" cy="392.081" r="63.187"/>
  	</g>
  	<path fill="none" stroke="#FFFFFF" stroke-width="4" stroke-linecap="round" stroke-miterlimit="10" d="M193.234,457.708
  		c-36.244,0-65.626-29.383-65.626-65.627s29.382-65.626,65.626-65.626"/>
  </g>
  <g id="eye_3_">
  	<circle fill="#FFFFFF" cx="192.015" cy="392.081" r="33.906"/>
  	<circle cx="192.015" cy="392.081" r="11.928"/>
  </g>
  <g id="wing_2_">
  	<path d="M293.057,358.758c-19.853,14.456-18.786,33.646,5.692,47.798c31.071,17.962,88.1,21.004,127.375,6.793
  		s45.925-40.294,14.854-58.257c-17.563-10.151-43.412-15.538-69.663-15.736"/>
  	<path fill="none" stroke="#FFFFFF" stroke-width="4" stroke-linecap="round" stroke-miterlimit="10" d="M369.572,441.671
  		c19.818,0.043,39.801-3.562,56.552-11.039c39.275-17.53,45.925-49.706,14.854-71.864c-17.563-12.522-43.412-19.167-69.663-19.412"
  		/>
  	<g>
  		<g>
  			<path d="M257.32,409.8l77.118,15.677c38.096-7.521,68.992-19.493,91.035-34.014c40.855-26.911,51.302-62.572,20.822-94.865
  				c-19.869-21.051-53.945-37.293-94.885-47.396l-71.737,122.446L257.32,409.8z"/>
  		</g>
  	</g>
  	<g>
  		<path fill="none" stroke="#FFFFFF" stroke-width="4" stroke-miterlimit="10" d="M453.875,369.755
  			c16.516-22.618,16.587-50.993-5.701-74.609c-20.358-21.569-55.273-38.212-97.223-48.564l-73.504,125.462"/>
  	</g>
  	<g>
  		<path fill="none" stroke="#FFFFFF" stroke-width="4" stroke-miterlimit="10" d="M350.779,384.55
  			c9.384-3.672,17.521-7.915,24.281-12.572c24.707-17.021,31.023-39.576,12.593-60.001c-12.017-13.313-32.623-23.588-57.381-29.978"
  			/>
  	</g>
  	
  		<line fill="none" stroke="#FFFFFF" stroke-width="4" stroke-miterlimit="10" x1="453.716" y1="370.426" x2="379.091" y2="370.426"/>
  	
  		<line fill="none" stroke="#FFFFFF" stroke-width="4" stroke-miterlimit="10" x1="391.829" y1="318.021" x2="451.199" y2="304.013"/>
  	
  		<line fill="none" stroke="#FFFFFF" stroke-width="4" stroke-miterlimit="10" x1="377.938" y1="304.013" x2="428.216" y2="281.906"/>
  	
  		<line fill="none" stroke="#FFFFFF" stroke-width="4" stroke-miterlimit="10" x1="358.127" y1="292.482" x2="393.829" y2="262.124"/>
  	
  		<line fill="none" stroke="#FFFFFF" stroke-width="4" stroke-miterlimit="10" x1="398.303" y1="334.011" x2="463.545" y2="326.808"/>
  	<line fill="none" stroke="#FFFFFF" stroke-width="4" stroke-miterlimit="10" x1="395" y1="351.577" x2="463.545" y2="349.711"/>
  </g>
</symbol>
<!-- Fly 3 -->
<symbol id="fly3" viewBox="0 0 800 800">
  <g id="laeegg_1_">
  	<path d="M549.718,567.292c-9.864,0-19.711-5.001-26.338-13.378c-9.532-12.049-10.354-28.234-2.137-38.987
  		c-11.312-9.494-29.188-21.883-51.517-28.56c-12.258-3.666-25.641-5.525-39.774-5.525c-19.331,0-33.275,3.544-33.414,3.58
  		l-3.432,0.887l1.016-3.396c4.638-15.505,13.968-28.746,26.983-38.291c12.591-9.233,28.077-14.319,43.609-14.319
  		c7.135,0,14.251,1.047,21.151,3.11c28.469,8.515,49.223,33.757,52.219,63.207c0.689-0.059,1.385-0.087,2.082-0.087
  		c5.84,0,12.059,2.058,17.983,5.952c15.07,9.904,20.217,28.794,11.47,42.104l-1.821,2.771l-1.603-2.904
  		c-0.068-0.124-6.624-11.84-18.724-20.649c-0.224,1.651-0.467,3.889-0.679,5.841c-0.532,4.886-1.129,10.361-1.946,14.058
  		c9.604,10.404,20.93,15.492,21.046,15.544l3.029,1.341l-2.597,2.058C561.658,565.34,555.915,567.292,549.718,567.292z"/>
  	<path fill="#FFFFFF" d="M464.716,431.302c6.804,0,13.726,0.978,20.578,3.026c29.356,8.78,48.891,34.688,50.98,63.538
  		c1.269-0.223,2.567-0.334,3.894-0.334c5.352,0,11.111,1.829,16.885,5.623c14.174,9.314,19.051,26.927,10.896,39.336
  		c0,0-7.497-13.629-21.669-22.943c-0.018-0.011-0.033-0.017-0.052-0.017c-0.933,0-1.789,16.913-3.57,23.733
  		c10.175,11.406,22.429,16.813,22.429,16.813c-4.455,3.523-9.834,5.215-15.369,5.215c-8.934,0-18.271-4.406-24.77-12.619
  		c-9.363-11.835-9.666-27.585-1.418-37.403c-0.057-0.39-0.093-0.763-0.134-1.141c-10.73-9.136-29.435-22.602-53.097-29.678
  		c-14.301-4.277-28.366-5.609-40.349-5.609c-19.81,0-33.914,3.645-33.914,3.645C405.338,451.393,433.846,431.301,464.716,431.302
  		 M464.716,427.302v4V427.302c-15.954,0-31.862,5.224-44.794,14.706c-13.368,9.805-22.952,23.405-27.716,39.331l-2.032,6.792
  		l6.864-1.771c0.135-0.034,13.909-3.518,32.914-3.518c13.939,0,27.13,1.831,39.202,5.441c21.091,6.308,38.173,17.803,49.384,26.997
  		c-7.561,11.432-6.375,27.679,3.272,39.874c7.004,8.853,17.437,14.138,27.906,14.138c6.652,0,12.825-2.102,17.852-6.078l5.206-4.118
  		l-6.073-2.679c-0.104-0.046-10.545-4.754-19.684-14.324c0.731-3.736,1.275-8.73,1.767-13.229c0.081-0.746,0.167-1.537,0.254-2.318
  		c9.96,8.17,15.348,17.77,15.409,17.879l3.207,5.791l3.638-5.526c9.353-14.232,3.951-34.364-12.042-44.875
  		c-6.252-4.108-12.851-6.28-19.082-6.28c-0.102,0-0.203,0-0.305,0.002c-1.726-13.661-7.113-26.53-15.713-37.439
  		c-9.664-12.259-22.704-21.109-37.711-25.599C479.354,428.377,472.046,427.302,464.716,427.302L464.716,427.302z"/>
  </g>
  <g id="headLine_1_">
  	<path fill="#FFFFFF" d="M192.015,328.895c34.897,0,63.187,28.29,63.187,63.187c0,34.896-28.29,63.188-63.187,63.188
  		s-63.187-28.289-63.187-63.188C128.828,357.185,157.118,328.895,192.015,328.895 M192.015,324.895
  		c-37.047,0-67.187,30.14-67.187,67.187s30.14,67.188,67.187,67.188c37.047,0,67.187-30.141,67.187-67.188
  		S229.062,324.895,192.015,324.895L192.015,324.895z"/>
  </g>
  <g id="wingLine">
  	<path fill="#FFFFFF" d="M334.438,349.786c38.096,16.445,68.992,42.623,91.035,74.369c40.855,58.838,51.302,136.809,20.822,207.414
  		c-19.869,46.024-53.945,81.537-94.885,103.629L279.672,467.48l-22.353-83.418L334.438,349.786 M334.414,345.419l-1.602,0.711
  		l-77.117,34.276l-3.124,1.389l0.885,3.302l22.353,83.417l71.737,267.718l1.311,4.889l4.452-2.403
  		c21.147-11.412,40.116-26.095,56.378-43.641c16.827-18.155,30.38-38.989,40.28-61.924c14.979-34.702,20.735-72.788,16.644-110.142
  		c-3.97-36.219-17.059-71.191-37.854-101.14c-23.175-33.377-55.243-59.575-92.734-75.76L334.414,345.419L334.414,345.419z"/>
  </g>
  <g id="tail_1_">
  	<path d="M724.871,413.915c-66.49-0.001-128.337-29.931-169.68-82.115l-2.568-3.242h174.593v85.354L724.871,413.915z"/>
  	<path fill="#FFFFFF" d="M725.216,330.558v81.357c-0.116,0-0.228,0-0.345,0c-68.121,0-128.844-31.792-168.112-81.357H725.216
  		 M729.216,326.558h-4H556.759h-8.271l5.137,6.484c20.009,25.255,45.805,46.13,74.6,60.368
  		c30.202,14.934,62.721,22.506,96.648,22.506h0.352l3.993-0.007v-3.993v-81.357L729.216,326.558L729.216,326.558z"/>
  </g>
  <g id="body_1_">
  	<path d="M348.352,497.295c-66.637-0.002-128.539-29.938-169.833-82.135l-0.543-0.688l13.55-85.915l367.764,0.004l-0.584,2.462
  		c-11.329,47.73-37.694,89.081-76.246,119.579c-38.608,30.546-84.984,46.692-134.103,46.692
  		C348.353,497.295,348.354,497.295,348.352,497.295z"/>
  	<path fill="#FFFFFF" d="M193.234,330.558l363.524,0.004c-10.743,45.263-36.226,87.369-75.541,118.473
  		c-39.37,31.146-86.282,46.261-132.866,46.261c-63.281,0-125.954-27.895-168.265-81.376L193.234,330.558 M189.816,326.558
  		l-0.533,3.377l-13.148,83.361l-0.273,1.73l1.087,1.374c21.073,26.637,47.213,47.455,77.695,61.878
  		c29.059,13.749,61.462,21.017,93.707,21.017c24.063,0,47.76-3.925,70.432-11.665c23.458-8.008,45.299-19.938,64.917-35.459
  		c19.591-15.498,36.208-33.979,49.39-54.934c12.739-20.25,22.013-42.372,27.563-65.752l1.169-4.924h-5.062l-363.524-0.004
  		L189.816,326.558L189.816,326.558z"/>
  </g>
  <g id="beak_1_">
  	<g>
  		<path d="M81.651,392.081l1.435-2.89c10.237-20.616,34.004-41.418,64.028-41.418c34.864,0,63.462,18.523,65.106,42.169l0.149,2.139
  			H81.651z"/>
  		<path fill="#FFFFFF" d="M147.114,349.773c33.896,0,61.551,17.872,63.111,40.308H84.877
  			C93.932,371.846,116.572,349.773,147.114,349.773 M147.114,345.773c-30.88,0-55.308,21.36-65.819,42.529l-2.87,5.779h6.452
  			h125.348h4.288l-0.297-4.277C212.499,365.114,183.024,345.773,147.114,345.773L147.114,345.773z"/>
  	</g>
  	<g>
  		<path d="M147.114,436.39c-31.467,0-57.293-26.999-64.127-41.454l-1.35-2.855h130.732l-0.149,2.139
  			C210.576,417.866,181.978,436.39,147.114,436.39z"/>
  		<path fill="#FFFFFF" d="M210.225,394.081c-1.56,22.437-29.216,40.309-63.111,40.309c-30.227,0-55.467-25.814-62.319-40.309
  			H210.225 M214.513,390.081h-4.288H84.795H78.48l2.699,5.709c3.288,6.955,11.214,17.718,23.6,27.072
  			c9.379,7.083,24.338,15.526,42.335,15.526c35.91,0,65.385-19.341,67.102-44.031L214.513,390.081L214.513,390.081z"/>
  	</g>
  </g>
  <g id="head_1_">
  	<g>
  		<circle cx="192.015" cy="392.081" r="63.187"/>
  	</g>
  	<path fill="none" stroke="#FFFFFF" stroke-width="4" stroke-linecap="round" stroke-miterlimit="10" d="M193.234,457.708
  		c-36.244,0-65.626-29.383-65.626-65.627s29.382-65.626,65.626-65.626"/>
  </g>
  <g id="eye_2_">
  	<circle fill="#FFFFFF" cx="192.015" cy="392.081" r="33.906"/>
  	<circle cx="192.015" cy="392.081" r="11.928"/>
  </g>
  <g id="wing_1_">
  	<path d="M293.057,495.66c-19.853-31.605-18.786-73.564,5.692-104.506c31.071-39.273,88.1-45.925,127.375-14.853
  		c39.275,31.072,45.925,88.102,14.854,127.375c-17.563,22.195-43.412,33.974-69.663,34.406"/>
  	<path fill="none" stroke="#FFFFFF" stroke-width="4" stroke-linecap="round" stroke-miterlimit="10" d="M369.572,356.735
  		c19.818-0.076,39.801,6.313,56.552,19.566c39.275,31.072,45.925,88.102,14.854,127.375c-17.563,22.195-43.412,33.974-69.663,34.406
  		"/>
  	<g>
  		<path d="M257.32,384.062l77.118-34.276c38.096,16.445,68.992,42.623,91.035,74.369c40.855,58.838,51.302,136.809,20.822,207.414
  			c-19.869,46.024-53.945,81.537-94.885,103.629L279.672,467.48L257.32,384.062z"/>
  	</g>
  	<path fill="none" stroke="#FFFFFF" stroke-width="4" stroke-miterlimit="10" d="M350.779,449.107
  		c9.384,7.676,17.521,16.545,24.281,26.28c24.707,35.582,31.023,82.732,12.593,125.433c-12.017,27.832-32.623,49.309-57.381,62.668"
  		/>
  	
  		<line fill="none" stroke="#FFFFFF" stroke-width="4" stroke-miterlimit="10" x1="453.716" y1="479.988" x2="379.091" y2="479.988"/>
  	
  		<line fill="none" stroke="#FFFFFF" stroke-width="4" stroke-miterlimit="10" x1="391.829" y1="589.807" x2="451.199" y2="619.162"/>
  	
  		<line fill="none" stroke="#FFFFFF" stroke-width="4" stroke-miterlimit="10" x1="377.938" y1="619.162" x2="428.216" y2="665.488"/>
  	
  		<line fill="none" stroke="#FFFFFF" stroke-width="4" stroke-miterlimit="10" x1="358.127" y1="643.324" x2="393.829" y2="706.943"/>
  	
  		<line fill="none" stroke="#FFFFFF" stroke-width="4" stroke-miterlimit="10" x1="398.303" y1="556.299" x2="463.545" y2="571.395"/>
  	<line fill="none" stroke="#FFFFFF" stroke-width="4" stroke-miterlimit="10" x1="395" y1="519.486" x2="463.545" y2="523.396"/>
  </g>
</symbol>
<!-- Fly 4 -->
<symbol id="fly4" viewBox="0 0 800 800">
  <g id="laeegg_13_">
  	<path d="M549.718,567.292c-9.864,0-19.711-5.001-26.338-13.378c-9.532-12.049-10.354-28.234-2.137-38.987
  		c-11.312-9.494-29.188-21.883-51.517-28.56c-12.258-3.666-25.641-5.525-39.774-5.525c-19.331,0-33.275,3.544-33.414,3.58
  		l-3.432,0.887l1.016-3.396c4.638-15.505,13.968-28.746,26.983-38.291c12.591-9.233,28.077-14.319,43.609-14.319
  		c7.135,0,14.251,1.047,21.151,3.11c28.469,8.515,49.223,33.757,52.219,63.207c0.689-0.059,1.385-0.087,2.082-0.087
  		c5.84,0,12.059,2.058,17.983,5.952c15.07,9.904,20.217,28.794,11.47,42.104l-1.821,2.771l-1.603-2.904
  		c-0.068-0.124-6.624-11.84-18.724-20.649c-0.224,1.651-0.467,3.889-0.679,5.841c-0.532,4.886-1.129,10.361-1.946,14.058
  		c9.604,10.404,20.93,15.492,21.046,15.544l3.029,1.341l-2.597,2.058C561.658,565.34,555.915,567.292,549.718,567.292z"/>
  	<path fill="#FFFFFF" d="M464.716,431.302c6.804,0,13.726,0.978,20.578,3.026c29.356,8.78,48.891,34.688,50.98,63.538
  		c1.269-0.223,2.567-0.334,3.894-0.334c5.352,0,11.111,1.829,16.885,5.623c14.174,9.314,19.051,26.927,10.896,39.336
  		c0,0-7.497-13.629-21.669-22.943c-0.018-0.011-0.033-0.017-0.052-0.017c-0.933,0-1.789,16.913-3.57,23.733
  		c10.175,11.406,22.429,16.813,22.429,16.813c-4.455,3.523-9.834,5.215-15.369,5.215c-8.934,0-18.271-4.406-24.77-12.619
  		c-9.363-11.835-9.666-27.585-1.418-37.403c-0.057-0.39-0.093-0.763-0.134-1.141c-10.73-9.136-29.435-22.602-53.097-29.678
  		c-14.301-4.277-28.366-5.609-40.349-5.609c-19.81,0-33.914,3.645-33.914,3.645C405.338,451.393,433.846,431.301,464.716,431.302
  		 M464.716,427.302v4V427.302c-15.954,0-31.862,5.224-44.794,14.706c-13.368,9.805-22.952,23.405-27.716,39.331l-2.032,6.792
  		l6.864-1.771c0.135-0.034,13.909-3.518,32.914-3.518c13.939,0,27.13,1.831,39.202,5.441c21.091,6.308,38.173,17.803,49.384,26.997
  		c-7.561,11.432-6.375,27.679,3.272,39.874c7.004,8.853,17.437,14.138,27.906,14.138c6.652,0,12.825-2.102,17.852-6.078l5.206-4.118
  		l-6.073-2.679c-0.104-0.046-10.545-4.754-19.684-14.324c0.731-3.736,1.275-8.73,1.767-13.229c0.081-0.746,0.167-1.537,0.254-2.318
  		c9.96,8.17,15.348,17.77,15.409,17.879l3.207,5.791l3.638-5.526c9.353-14.232,3.951-34.364-12.042-44.875
  		c-6.252-4.108-12.851-6.28-19.082-6.28c-0.102,0-0.203,0-0.305,0.002c-1.726-13.661-7.113-26.53-15.713-37.439
  		c-9.664-12.259-22.704-21.109-37.711-25.599C479.354,428.377,472.046,427.302,464.716,427.302L464.716,427.302z"/>
  </g>
  <g id="headLine_13_">
  	<path fill="#FFFFFF" d="M192.015,328.895c34.897,0,63.187,28.29,63.187,63.187c0,34.896-28.29,63.188-63.187,63.188
  		s-63.187-28.289-63.187-63.188C128.828,357.185,157.118,328.895,192.015,328.895 M192.015,324.895
  		c-37.047,0-67.187,30.14-67.187,67.187s30.14,67.188,67.187,67.188c37.047,0,67.187-30.141,67.187-67.188
  		S229.062,324.895,192.015,324.895L192.015,324.895z"/>
  </g>
  <g id="tail_13_">
  	<path d="M724.871,413.915c-66.49-0.001-128.337-29.931-169.68-82.115l-2.568-3.242h174.593v85.354L724.871,413.915z"/>
  	<path fill="#FFFFFF" d="M725.216,330.558v81.357c-0.116,0-0.228,0-0.345,0c-68.121,0-128.844-31.792-168.112-81.357H725.216
  		 M729.216,326.558h-4H556.759h-8.271l5.137,6.484c20.009,25.255,45.805,46.13,74.6,60.368
  		c30.202,14.934,62.721,22.506,96.648,22.506h0.352l3.993-0.007v-3.993v-81.357L729.216,326.558L729.216,326.558z"/>
  </g>
  <g id="body_13_">
  	<path d="M348.352,497.295c-66.637-0.002-128.539-29.938-169.833-82.135l-0.543-0.688l13.55-85.915l367.764,0.004l-0.584,2.462
  		c-11.329,47.73-37.694,89.081-76.246,119.579c-38.608,30.546-84.984,46.692-134.103,46.692
  		C348.353,497.295,348.354,497.295,348.352,497.295z"/>
  	<path fill="#FFFFFF" d="M193.234,330.558l363.524,0.004c-10.743,45.263-36.226,87.369-75.541,118.473
  		c-39.37,31.146-86.282,46.261-132.866,46.261c-63.281,0-125.954-27.895-168.265-81.376L193.234,330.558 M189.816,326.558
  		l-0.533,3.377l-13.148,83.361l-0.273,1.73l1.087,1.374c21.073,26.637,47.213,47.455,77.695,61.878
  		c29.059,13.749,61.462,21.017,93.707,21.017c24.063,0,47.76-3.925,70.432-11.665c23.458-8.008,45.299-19.938,64.917-35.459
  		c19.591-15.498,36.208-33.979,49.39-54.934c12.739-20.25,22.013-42.372,27.563-65.752l1.169-4.924h-5.062l-363.524-0.004
  		L189.816,326.558L189.816,326.558z"/>
  </g>
  <g id="beak_6_">
  	<g>
  		<path d="M81.651,392.081l1.435-2.89c10.237-20.616,34.004-41.418,64.028-41.418c34.864,0,63.462,18.523,65.106,42.169l0.149,2.139
  			H81.651z"/>
  		<path fill="#FFFFFF" d="M147.114,349.773c33.896,0,61.551,17.872,63.111,40.308H84.877
  			C93.932,371.846,116.572,349.773,147.114,349.773 M147.114,345.773c-30.88,0-55.308,21.36-65.819,42.529l-2.87,5.779h6.452
  			h125.348h4.288l-0.297-4.277C212.499,365.114,183.024,345.773,147.114,345.773L147.114,345.773z"/>
  	</g>
  	<g>
  		<path d="M147.114,436.39c-31.467,0-57.293-26.999-64.127-41.454l-1.35-2.855h130.732l-0.149,2.139
  			C210.576,417.866,181.978,436.39,147.114,436.39z"/>
  		<path fill="#FFFFFF" d="M210.225,394.081c-1.56,22.437-29.216,40.309-63.111,40.309c-30.227,0-55.467-25.814-62.319-40.309
  			H210.225 M214.513,390.081h-4.288H84.795H78.48l2.699,5.709c3.288,6.955,11.214,17.718,23.6,27.072
  			c9.379,7.083,24.338,15.526,42.335,15.526c35.91,0,65.385-19.341,67.102-44.031L214.513,390.081L214.513,390.081z"/>
  	</g>
  </g>
  <g id="head_6_">
  	<g>
  		<circle cx="192.015" cy="392.081" r="63.187"/>
  	</g>
  	<path fill="none" stroke="#FFFFFF" stroke-width="4" stroke-linecap="round" stroke-miterlimit="10" d="M193.234,457.708
  		c-36.244,0-65.626-29.383-65.626-65.627s29.382-65.626,65.626-65.626"/>
  </g>
  <g id="eye_7_">
  	<circle fill="#FFFFFF" cx="192.015" cy="392.081" r="33.906"/>
  	<circle cx="192.015" cy="392.081" r="11.928"/>
  </g>
  <g id="wing_6_">
  	<path d="M293.057,420.504c-19.853-14.455-18.786-33.646,5.692-47.798c31.071-17.962,88.1-21.004,127.375-6.793
  		s45.925,40.295,14.854,58.257c-17.563,10.152-43.412,15.539-69.663,15.736"/>
  	<path fill="none" stroke="#FFFFFF" stroke-width="4" stroke-linecap="round" stroke-miterlimit="10" d="M369.572,356.964
  		c19.818-0.035,39.801,2.888,56.552,8.949c39.275,14.211,45.925,40.295,14.854,58.257c-17.563,10.152-43.412,15.539-69.663,15.736"
  		/>
  	<g>
  		<g>
  			<path d="M257.32,369.463l77.118-15.677c38.096,7.521,68.992,19.495,91.035,34.014c40.855,26.912,51.302,62.573,20.822,94.866
  				c-19.869,21.051-53.945,37.293-94.885,47.396l-71.737-122.446L257.32,369.463z"/>
  		</g>
  	</g>
  	<g>
  		<path fill="none" stroke="#FFFFFF" stroke-width="4" stroke-miterlimit="10" d="M454.875,412.508
  			c16.516,22.618,15.587,47.993-6.701,71.609c-20.358,21.568-55.273,38.212-97.223,48.563l-73.504-125.463"/>
  	</g>
  	<g>
  		<path fill="none" stroke="#FFFFFF" stroke-width="4" stroke-miterlimit="10" d="M350.779,399.213
  			c9.384,3.51,17.521,7.566,24.281,12.021c24.707,16.273,31.023,37.84,12.593,57.368c-12.017,12.729-32.623,22.554-57.381,28.662"/>
  	</g>
  	
  		<line fill="none" stroke="#FFFFFF" stroke-width="4" stroke-miterlimit="10" x1="453.716" y1="413.336" x2="379.091" y2="413.336"/>
  	<line fill="none" stroke="#FFFFFF" stroke-width="4" stroke-miterlimit="10" x1="391.829" y1="463.564" x2="451.199" y2="476.99"/>
  	<line fill="none" stroke="#FFFFFF" stroke-width="4" stroke-miterlimit="10" x1="377.938" y1="476.99" x2="428.216" y2="498.179"/>
  	
  		<line fill="none" stroke="#FFFFFF" stroke-width="4" stroke-miterlimit="10" x1="358.127" y1="488.042" x2="393.829" y2="517.139"/>
  	
  		<line fill="none" stroke="#FFFFFF" stroke-width="4" stroke-miterlimit="10" x1="398.303" y1="448.238" x2="463.545" y2="455.143"/>
  	<line fill="none" stroke="#FFFFFF" stroke-width="4" stroke-miterlimit="10" x1="395" y1="431.402" x2="463.545" y2="433.19"/>
  </g>
</symbol>
</svg>
