<?xml version="1.0" encoding="utf-8"?>
<!-- Generator: Adobe Illustrator 16.0.3, SVG Export Plug-In . SVG Version: 6.00 Build 0)  -->
<!DOCTYPE svg PUBLIC "-//W3C//DTD SVG 1.1//EN" "http://www.w3.org/Graphics/SVG/1.1/DTD/svg11.dtd">
<svg version="1.1" id="Layer_1" xmlns="http://www.w3.org/2000/svg" xmlns:xlink="http://www.w3.org/1999/xlink" x="0px" y="0px"
	 width="800px" height="800px" viewBox="0 0 800 800" enable-background="new 0 0 800 800" xml:space="preserve">
<g id="laeegg">
	<path d="M379.917,594.327c-13.999,0-26.982-3.276-34.946-8.792c-14.299,1.021-25.427,6.823-25.54,6.883l-2.934,1.55v-3.317
		c0-15.928,14.673-28.886,32.709-28.886c0.252,0,0.507,0.003,0.771,0.011l0.085-0.414l2.895,0.598
		c2.528,0.255,5.005,0.766,7.365,1.518l23.667,4.875c7.842-11.024,20.835-32.492,25.514-59.03
		c6.695-37.968-6.411-72.578-6.544-72.923l-1.275-3.306l3.488,0.614c40.028,7.059,66.853,45.366,59.793,85.395
		c-3.62,20.531-15.653,38.403-33.208,49.5c7.307,5.461,11.581,13.505,11.581,22.05v3.313l-2.933-1.544
		c-0.113-0.06-11.283-5.864-25.541-6.884C406.898,591.051,393.916,594.327,379.917,594.327z"/>
	<path fill="#FFFFFF" d="M404.823,435.676c39.004,6.878,65.049,44.072,58.171,83.077c-3.843,21.794-17.155,39.534-34.956,49.754
		c8.031,4.85,13.299,12.956,13.299,22.144c0,0-11.817-6.243-27.053-7.156c-7.273,5.313-19.943,8.834-34.367,8.834
		s-27.094-3.521-34.367-8.834c-15.234,0.913-27.053,7.156-27.053,7.156c0-14.849,13.749-26.886,30.709-26.886
		c0.806,0,1.602,0.036,2.392,0.089c0.009-0.043,0.014-0.086,0.021-0.129c0,0,0.364,0.075,1.034,0.213
		c2.487,0.244,4.887,0.743,7.158,1.476c5.437,1.12,13.116,2.702,21.638,4.457c1.151,0.237,2.288,0.472,3.406,0.702
		c7.567-10.443,21.679-32.901,26.615-60.904C418.35,470.664,404.823,435.676,404.823,435.676 M398.536,430.506l2.557,6.612
		c0.183,0.476,13.02,34.55,6.439,71.854c-4.466,25.327-16.631,45.992-24.424,57.154l-0.853-0.176l-21.43-4.414
		c-2.429-0.767-4.973-1.29-7.566-1.56l-0.83-0.171l-3.925-0.812l-0.159,0.777c-18.742,0.407-33.848,14.102-33.848,30.875v6.638
		l5.869-3.101c0.103-0.055,10.589-5.484,24.063-6.604c8.331,5.494,21.44,8.744,35.487,8.744c14.046,0,27.157-3.25,35.487-8.744
		c13.55,1.12,23.957,6.547,24.063,6.604l5.868,3.101v-6.638c0-8.295-3.729-16.136-10.204-21.877
		c16.775-11.473,28.243-29.148,31.801-49.324c7.25-41.113-20.301-80.461-61.416-87.711L398.536,430.506L398.536,430.506z"/>
</g>
<g id="headLine_9_">
	<path d="M262.778,364.813c-35.944,0-65.187-29.243-65.187-65.187s29.243-65.187,65.187-65.187
		c35.944,0,65.187,29.243,65.187,65.187S298.723,364.813,262.778,364.813z"/>
	<path fill="#FFFFFF" d="M262.778,236.439c34.897,0,63.187,28.29,63.187,63.187s-28.29,63.187-63.187,63.187
		s-63.187-28.29-63.187-63.187C199.592,264.729,227.881,236.439,262.778,236.439 M262.778,232.439
		c-37.047,0-67.187,30.14-67.187,67.187s30.14,67.187,67.187,67.187c37.047,0,67.187-30.14,67.187-67.187
		S299.825,232.439,262.778,232.439L262.778,232.439z"/>
</g>
<g id="tail_9_">
	<path d="M574,297.626h85.621v2c0,66.627-30.027,128.553-82.382,169.899L574,472.084V297.626z"/>
	<path fill="#FFFFFF" d="M657.621,299.626c0,68.264-31.909,129.071-81.621,168.33v-168.33H657.621 M661.621,295.626h-4H576h-4v4
		v168.33v8.256l6.479-5.117c25.331-20.005,46.271-45.817,60.559-74.649c14.984-30.246,22.584-62.82,22.584-96.818V295.626
		L661.621,295.626z"/>
</g>
<g id="body_9_">
	<path d="M443.247,516.002c-57.796,0-112.133-22.507-153-63.375c-40.868-40.867-63.375-95.204-63.375-153v-0.972l69.819-54.905
		l282.528,224.212l-1.982,1.565C538.737,499.932,492.404,516.002,443.247,516.002z"/>
	<path fill="#FFFFFF" d="M296.685,246.299l279.311,221.66c-36.508,28.831-82.617,46.043-132.749,46.043
		c-118.396,0-214.375-95.979-214.375-214.375L296.685,246.299 M296.696,241.202l-2.484,1.954l-67.813,53.328l-1.527,1.201v1.943
		c0,29.479,5.774,58.078,17.163,85.002c10.999,26.005,26.744,49.358,46.798,69.412c20.054,20.054,43.407,35.799,69.412,46.798
		c26.925,11.388,55.523,17.162,85.003,17.162c24.979,0,49.479-4.185,72.817-12.438c22.555-7.978,43.553-19.572,62.41-34.466
		l3.966-3.132l-3.958-3.141l-279.312-221.66L296.696,241.202L296.696,241.202z"/>
</g>
<g id="beak_7_">
	<g>
		<path d="M152.833,288.983l1.701-2.741c10.959-17.656,34.234-35.471,61.528-35.471c2.033,0,4.094,0.098,6.127,0.291
			c34.708,3.296,61.427,24.439,60.829,48.134l-0.054,2.144L152.833,288.983z"/>
		<path fill="#FFFFFF" d="M216.062,252.772c1.952,0,3.934,0.092,5.938,0.282c33.744,3.204,59.586,23.609,59.018,46.093
			l-124.785-11.85C166.262,271.141,188.406,252.772,216.062,252.772 M216.062,248.772c-13.307,0-26.687,4.095-38.693,11.843
			c-9.984,6.442-18.697,15.168-24.534,24.573l-3.403,5.481l6.423,0.61l124.785,11.85l4.269,0.405l0.108-4.286
			c0.625-24.741-26.889-46.781-62.639-50.176C220.283,248.873,218.158,248.772,216.062,248.772L216.062,248.772z"/>
	</g>
	<g>
		<path d="M215.255,351.889c-24.925,0-48.738-14.975-57.687-25.607l-2.033-2.416l126.405-33.354l0.402,2.106
			c4.444,23.284-18.482,48.49-52.192,57.384c-4.746,1.252-9.757,1.887-14.893,1.887
			C215.256,351.889,215.256,351.889,215.255,351.889z"/>
		<path fill="#FFFFFF" d="M280.378,292.993c4.216,22.091-17.965,46.428-50.738,55.076c-4.781,1.262-9.607,1.821-14.384,1.821
			c-24.427,0-47.521-14.635-56.156-24.895L280.378,292.993 M283.503,288.031l-4.146,1.094l-121.279,32.001l-6.106,1.611l4.066,4.832
			c5.097,6.056,13.856,12.522,23.431,17.299c8.25,4.115,21.156,9.021,35.786,9.021c5.31,0,10.493-0.657,15.405-1.953
			c34.722-9.162,58.287-35.382,53.647-59.693L283.503,288.031L283.503,288.031z"/>
	</g>
</g>
<g id="head_7_">
	<g>
		<circle cx="262.779" cy="299.626" r="63.187"/>
	</g>
	<path fill="none" stroke="#FFFFFF" stroke-width="4" stroke-linecap="round" stroke-miterlimit="10" d="M263.998,365.252
		c-36.244,0-65.626-29.382-65.626-65.626S227.754,234,263.998,234"/>
</g>
<g id="eye_6_">
	<circle fill="#FFFFFF" cx="262.779" cy="299.626" r="33.906"/>
	<circle cx="262.779" cy="299.626" r="11.928"/>
</g>
<g id="wingLines_3_">
	<path fill="none" stroke="#FFFFFF" stroke-width="4" stroke-linecap="round" stroke-miterlimit="10" d="M343.288,331.919
		c-32.798,11.625-56.289,42.921-56.289,79.703c0,46.688,37.85,84.539,84.54,84.539c46.689,0,84.54-37.852,84.54-84.539
		c0-26.387-12.089-49.95-31.031-65.453"/>
	
		<line fill="none" stroke="#FFFFFF" stroke-width="4" stroke-linecap="round" stroke-miterlimit="10" x1="509.832" y1="503.454" x2="446.107" y2="452.884"/>
	
		<line fill="none" stroke="#FFFFFF" stroke-width="4" stroke-linecap="round" stroke-miterlimit="10" x1="546.791" y1="487.373" x2="456.078" y2="415.384"/>
	
		<line fill="none" stroke="#FFFFFF" stroke-width="4" stroke-linecap="round" stroke-miterlimit="10" x1="464.096" y1="512.988" x2="422.211" y2="479.298"/>
</g>
</svg>
