<?xml version="1.0" encoding="utf-8"?>
<!-- Generator: Adobe Illustrator 16.0.3, SVG Export Plug-In . SVG Version: 6.00 Build 0)  -->
<!DOCTYPE svg PUBLIC "-//W3C//DTD SVG 1.1//EN" "http://www.w3.org/Graphics/SVG/1.1/DTD/svg11.dtd">
<svg version="1.1" id="Layer_1" xmlns="http://www.w3.org/2000/svg" xmlns:xlink="http://www.w3.org/1999/xlink" x="0px" y="0px"
	 width="800px" height="800px" viewBox="0 0 800 800" enable-background="new 0 0 800 800" xml:space="preserve">
<g id="laeegg_13_">
	<path d="M549.718,567.292c-9.864,0-19.711-5.001-26.338-13.378c-9.532-12.049-10.354-28.234-2.137-38.987
		c-11.312-9.494-29.188-21.883-51.517-28.56c-12.258-3.666-25.641-5.525-39.774-5.525c-19.331,0-33.275,3.544-33.414,3.58
		l-3.432,0.887l1.016-3.396c4.638-15.505,13.968-28.746,26.983-38.291c12.591-9.233,28.077-14.319,43.609-14.319
		c7.135,0,14.251,1.047,21.151,3.11c28.469,8.515,49.223,33.757,52.219,63.207c0.689-0.059,1.385-0.087,2.082-0.087
		c5.84,0,12.059,2.058,17.983,5.952c15.07,9.904,20.217,28.794,11.47,42.104l-1.821,2.771l-1.603-2.904
		c-0.068-0.124-6.624-11.84-18.724-20.649c-0.224,1.651-0.467,3.889-0.679,5.841c-0.532,4.886-1.129,10.361-1.946,14.058
		c9.604,10.404,20.93,15.492,21.046,15.544l3.029,1.341l-2.597,2.058C561.658,565.34,555.915,567.292,549.718,567.292z"/>
	<path fill="#FFFFFF" d="M464.716,431.302c6.804,0,13.726,0.978,20.578,3.026c29.356,8.78,48.891,34.688,50.98,63.538
		c1.269-0.223,2.567-0.334,3.894-0.334c5.352,0,11.111,1.829,16.885,5.623c14.174,9.314,19.051,26.927,10.896,39.336
		c0,0-7.497-13.629-21.669-22.943c-0.018-0.011-0.033-0.017-0.052-0.017c-0.933,0-1.789,16.913-3.57,23.733
		c10.175,11.406,22.429,16.813,22.429,16.813c-4.455,3.523-9.834,5.215-15.369,5.215c-8.934,0-18.271-4.406-24.77-12.619
		c-9.363-11.835-9.666-27.585-1.418-37.403c-0.057-0.39-0.093-0.763-0.134-1.141c-10.73-9.136-29.435-22.602-53.097-29.678
		c-14.301-4.277-28.366-5.609-40.349-5.609c-19.81,0-33.914,3.645-33.914,3.645C405.338,451.393,433.846,431.301,464.716,431.302
		 M464.716,427.302v4V427.302c-15.954,0-31.862,5.224-44.794,14.706c-13.368,9.805-22.952,23.405-27.716,39.331l-2.032,6.792
		l6.864-1.771c0.135-0.034,13.909-3.518,32.914-3.518c13.939,0,27.13,1.831,39.202,5.441c21.091,6.308,38.173,17.803,49.384,26.997
		c-7.561,11.432-6.375,27.679,3.272,39.874c7.004,8.853,17.437,14.138,27.906,14.138c6.652,0,12.825-2.102,17.852-6.078l5.206-4.118
		l-6.073-2.679c-0.104-0.046-10.545-4.754-19.684-14.324c0.731-3.736,1.275-8.73,1.767-13.229c0.081-0.746,0.167-1.537,0.254-2.318
		c9.96,8.17,15.348,17.77,15.409,17.879l3.207,5.791l3.638-5.526c9.353-14.232,3.951-34.364-12.042-44.875
		c-6.252-4.108-12.851-6.28-19.082-6.28c-0.102,0-0.203,0-0.305,0.002c-1.726-13.661-7.113-26.53-15.713-37.439
		c-9.664-12.259-22.704-21.109-37.711-25.599C479.354,428.377,472.046,427.302,464.716,427.302L464.716,427.302z"/>
</g>
<g id="headLine_13_">
	<path fill="#FFFFFF" d="M192.015,328.895c34.897,0,63.187,28.29,63.187,63.187c0,34.896-28.29,63.188-63.187,63.188
		s-63.187-28.289-63.187-63.188C128.828,357.185,157.118,328.895,192.015,328.895 M192.015,324.895
		c-37.047,0-67.187,30.14-67.187,67.187s30.14,67.188,67.187,67.188c37.047,0,67.187-30.141,67.187-67.188
		S229.062,324.895,192.015,324.895L192.015,324.895z"/>
</g>
<g id="tail_13_">
	<path d="M724.871,413.915c-66.49-0.001-128.337-29.931-169.68-82.115l-2.568-3.242h174.593v85.354L724.871,413.915z"/>
	<path fill="#FFFFFF" d="M725.216,330.558v81.357c-0.116,0-0.228,0-0.345,0c-68.121,0-128.844-31.792-168.112-81.357H725.216
		 M729.216,326.558h-4H556.759h-8.271l5.137,6.484c20.009,25.255,45.805,46.13,74.6,60.368
		c30.202,14.934,62.721,22.506,96.648,22.506h0.352l3.993-0.007v-3.993v-81.357L729.216,326.558L729.216,326.558z"/>
</g>
<g id="body_13_">
	<path d="M348.352,497.295c-66.637-0.002-128.539-29.938-169.833-82.135l-0.543-0.688l13.55-85.915l367.764,0.004l-0.584,2.462
		c-11.329,47.73-37.694,89.081-76.246,119.579c-38.608,30.546-84.984,46.692-134.103,46.692
		C348.353,497.295,348.354,497.295,348.352,497.295z"/>
	<path fill="#FFFFFF" d="M193.234,330.558l363.524,0.004c-10.743,45.263-36.226,87.369-75.541,118.473
		c-39.37,31.146-86.282,46.261-132.866,46.261c-63.281,0-125.954-27.895-168.265-81.376L193.234,330.558 M189.816,326.558
		l-0.533,3.377l-13.148,83.361l-0.273,1.73l1.087,1.374c21.073,26.637,47.213,47.455,77.695,61.878
		c29.059,13.749,61.462,21.017,93.707,21.017c24.063,0,47.76-3.925,70.432-11.665c23.458-8.008,45.299-19.938,64.917-35.459
		c19.591-15.498,36.208-33.979,49.39-54.934c12.739-20.25,22.013-42.372,27.563-65.752l1.169-4.924h-5.062l-363.524-0.004
		L189.816,326.558L189.816,326.558z"/>
</g>
<g id="beak_6_">
	<g>
		<path d="M81.651,392.081l1.435-2.89c10.237-20.616,34.004-41.418,64.028-41.418c34.864,0,63.462,18.523,65.106,42.169l0.149,2.139
			H81.651z"/>
		<path fill="#FFFFFF" d="M147.114,349.773c33.896,0,61.551,17.872,63.111,40.308H84.877
			C93.932,371.846,116.572,349.773,147.114,349.773 M147.114,345.773c-30.88,0-55.308,21.36-65.819,42.529l-2.87,5.779h6.452
			h125.348h4.288l-0.297-4.277C212.499,365.114,183.024,345.773,147.114,345.773L147.114,345.773z"/>
	</g>
	<g>
		<path d="M147.114,436.39c-31.467,0-57.293-26.999-64.127-41.454l-1.35-2.855h130.732l-0.149,2.139
			C210.576,417.866,181.978,436.39,147.114,436.39z"/>
		<path fill="#FFFFFF" d="M210.225,394.081c-1.56,22.437-29.216,40.309-63.111,40.309c-30.227,0-55.467-25.814-62.319-40.309
			H210.225 M214.513,390.081h-4.288H84.795H78.48l2.699,5.709c3.288,6.955,11.214,17.718,23.6,27.072
			c9.379,7.083,24.338,15.526,42.335,15.526c35.91,0,65.385-19.341,67.102-44.031L214.513,390.081L214.513,390.081z"/>
	</g>
</g>
<g id="head_6_">
	<g>
		<circle cx="192.015" cy="392.081" r="63.187"/>
	</g>
	<path fill="none" stroke="#FFFFFF" stroke-width="4" stroke-linecap="round" stroke-miterlimit="10" d="M193.234,457.708
		c-36.244,0-65.626-29.383-65.626-65.627s29.382-65.626,65.626-65.626"/>
</g>
<g id="eye_7_">
	<circle fill="#FFFFFF" cx="192.015" cy="392.081" r="33.906"/>
	<circle cx="192.015" cy="392.081" r="11.928"/>
</g>
<g id="wing_6_">
	<path d="M293.057,420.504c-19.853-14.455-18.786-33.646,5.692-47.798c31.071-17.962,88.1-21.004,127.375-6.793
		s45.925,40.295,14.854,58.257c-17.563,10.152-43.412,15.539-69.663,15.736"/>
	<path fill="none" stroke="#FFFFFF" stroke-width="4" stroke-linecap="round" stroke-miterlimit="10" d="M369.572,356.964
		c19.818-0.035,39.801,2.888,56.552,8.949c39.275,14.211,45.925,40.295,14.854,58.257c-17.563,10.152-43.412,15.539-69.663,15.736"
		/>
	<g>
		<g>
			<path d="M257.32,369.463l77.118-15.677c38.096,7.521,68.992,19.495,91.035,34.014c40.855,26.912,51.302,62.573,20.822,94.866
				c-19.869,21.051-53.945,37.293-94.885,47.396l-71.737-122.446L257.32,369.463z"/>
		</g>
	</g>
	<g>
		<path fill="none" stroke="#FFFFFF" stroke-width="4" stroke-miterlimit="10" d="M454.875,412.508
			c16.516,22.618,15.587,47.993-6.701,71.609c-20.358,21.568-55.273,38.212-97.223,48.563l-73.504-125.463"/>
	</g>
	<g>
		<path fill="none" stroke="#FFFFFF" stroke-width="4" stroke-miterlimit="10" d="M350.779,399.213
			c9.384,3.51,17.521,7.566,24.281,12.021c24.707,16.273,31.023,37.84,12.593,57.368c-12.017,12.729-32.623,22.554-57.381,28.662"/>
	</g>
	
		<line fill="none" stroke="#FFFFFF" stroke-width="4" stroke-miterlimit="10" x1="453.716" y1="413.336" x2="379.091" y2="413.336"/>
	<line fill="none" stroke="#FFFFFF" stroke-width="4" stroke-miterlimit="10" x1="391.829" y1="463.564" x2="451.199" y2="476.99"/>
	<line fill="none" stroke="#FFFFFF" stroke-width="4" stroke-miterlimit="10" x1="377.938" y1="476.99" x2="428.216" y2="498.179"/>
	
		<line fill="none" stroke="#FFFFFF" stroke-width="4" stroke-miterlimit="10" x1="358.127" y1="488.042" x2="393.829" y2="517.139"/>
	
		<line fill="none" stroke="#FFFFFF" stroke-width="4" stroke-miterlimit="10" x1="398.303" y1="448.238" x2="463.545" y2="455.143"/>
	<line fill="none" stroke="#FFFFFF" stroke-width="4" stroke-miterlimit="10" x1="395" y1="431.402" x2="463.545" y2="433.19"/>
</g>
</svg>
